<svg xmlns="http://www.w3.org/2000/svg" viewBox="0 0 100 100">
  <defs>
    <linearGradient id="grad1" x1="0%" y1="0%" x2="100%" y2="100%">
      <stop offset="0%" style="stop-color:#0984e3;stop-opacity:1" />
      <stop offset="100%" style="stop-color:#00b894;stop-opacity:1" />
    </linearGradient>
  </defs>
  <circle cx="50" cy="50" r="48" fill="url(#grad1)"/>
  <!-- Cloud -->
  <path d="M 30 50 Q 25 45 25 40 Q 25 30 35 30 Q 35 20 45 20 Q 50 15 55 20 Q 65 20 70 25 Q 75 20 80 25 Q 85 25 85 30 Q 85 35 80 35 L 75 35 Q 75 40 70 45 L 30 50 Z" fill="white" opacity="0.9"/>
  <!-- Sun -->
  <circle cx="65" cy="35" r="12" fill="#fdcb6e"/>
  <line x1="65" y1="20" x2="65" y2="15" stroke="#fdcb6e" stroke-width="2" stroke-linecap="round"/>
  <line x1="65" y1="50" x2="65" y2="55" stroke="#fdcb6e" stroke-width="2" stroke-linecap="round"/>
  <line x1="50" y1="35" x2="45" y2="35" stroke="#fdcb6e" stroke-width="2" stroke-linecap="round"/>
  <line x1="80" y1="35" x2="85" y2="35" stroke="#fdcb6e" stroke-width="2" stroke-linecap="round"/>
  <line x1="55" y1="25" x2="52" y2="22" stroke="#fdcb6e" stroke-width="2" stroke-linecap="round"/>
  <line x1="75" y1="45" x2="78" y2="48" stroke="#fdcb6e" stroke-width="2" stroke-linecap="round"/>
  <line x1="75" y1="25" x2="78" y2="22" stroke="#fdcb6e" stroke-width="2" stroke-linecap="round"/>
  <line x1="55" y1="45" x2="52" y2="48" stroke="#fdcb6e" stroke-width="2" stroke-linecap="round"/>
</svg>

